<svg xmlns="http://www.w3.org/2000/svg" viewBox="0 0 630 430" class="svg-logo" width="315" height="215" style="height: auto;"><rect rx="10" ry="10" width="100%" height="100%" fill="rgba(80, 76, 79, 1.0)"></rect><g data-element="wrapper" transform="translate(-19.557296752932956 -18.000000000002274) scale(1.0000000000000098)"><g><g data-element="icon" transform="scale(0.15772188906232776) translate(771.5225983955431 1065.5197436916758)"><path id="color_x5F_2" fill="rgba(227, 227, 227, 1.0)" d="M330.341,337.878c0-18.061-14.643-32.702-32.703-32.702    c-18.062,0-32.701,14.642-32.701,32.702c0,13.817,8.596,25.571,20.708,30.361v83.504h23.827v-83.454    C321.666,363.539,330.341,351.755,330.341,337.878z"></path> <path id="color_x5F_1" fill="rgba(227, 227, 227, 1.0)" d="M293.936,55.294C163.639,57.153,53.884,160.429,44.683,290.414    c-7.607,107.457,51.78,201.937,140.619,245.901c22.51,11.14,48.934-4.717,48.934-29.833v-39.319c0-8.307,6.734-15.04,15.041-15.04    h6.093c0-49.018-49.173-101.678-70.054-121.828c-4.397-4.245-3.765-11.489,1.388-14.775c14.999-9.566,43.062-29.981,65.144-60.65    c12.724-17.672,22.61-43.855,29.888-68.871c4.661-16.022,27.146-16.022,31.807,0c7.276,25.015,17.163,51.198,29.887,68.871    c22.02,30.582,49.985,50.968,65.014,60.567c5.146,3.286,5.807,10.574,1.359,14.757c-20.968,19.726-69.895,71.189-69.895,121.93    h6.093c8.307,0,15.041,6.733,15.041,15.04v39.289c0,24.956,26.237,41.057,48.62,30.018    c83.881-41.365,141.588-127.739,141.588-227.591C551.248,167.581,435.697,53.272,293.936,55.294z"></path></g><text transform="translate(222.6302032470703 235)" fill="rgba(227, 227, 227, 1.0)" font-family="Sarina" font-size="64" data-element="company-name" dx="0 0 0 0 0 0">Journi</text><text transform="translate(183.515625 283.6666679382324)" fill="rgba(227, 227, 227, 1.0)" font-family="Quicksand" font-size="28.8" data-element="slogan" dx="0 0 0 0 0 0 0 0 0 0 0 0 0 0 0 0 0 0 0 0 0 0 0 0 0 0 0 0 0 0">Your all in one digital diary!</text></g></g></svg>